<mxfile host="app.diagrams.net" agent="Mozilla/5.0 (Windows NT 10.0; Win64; x64) AppleWebKit/537.36 (KHTML, like Gecko) Chrome/134.0.0.0 Safari/537.36" version="26.1.3">
  <diagram name="Page-1" id="ySRm1STF3ZtucR_X7EqH">
    <mxGraphModel dx="2925" dy="1113" grid="1" gridSize="10" guides="1" tooltips="1" connect="1" arrows="1" fold="1" page="1" pageScale="1" pageWidth="827" pageHeight="1169" math="0" shadow="0">
      <root>
        <mxCell id="0" />
        <mxCell id="1" parent="0" />
        <mxCell id="HJMxeG1oSkIeelWJfz3V-1" value="Ploybout" style="shape=rect;html=1;verticalAlign=top;fontStyle=1;whiteSpace=wrap;align=center;" parent="1" vertex="1">
          <mxGeometry x="170" y="10" width="440" height="850" as="geometry" />
        </mxCell>
        <mxCell id="HJMxeG1oSkIeelWJfz3V-2" value="Visiteur" style="shape=umlActor;verticalLabelPosition=bottom;verticalAlign=top;html=1;outlineConnect=0;" parent="1" vertex="1">
          <mxGeometry x="98.98" y="52.5" width="30" height="60" as="geometry" />
        </mxCell>
        <mxCell id="HJMxeG1oSkIeelWJfz3V-3" value="&lt;div&gt;Utilisateur connecté&amp;nbsp;&lt;/div&gt;&lt;div&gt;(avec personnage)&lt;/div&gt;" style="shape=umlActor;verticalLabelPosition=bottom;verticalAlign=top;html=1;outlineConnect=0;" parent="1" vertex="1">
          <mxGeometry x="98.98" y="660" width="30" height="60" as="geometry" />
        </mxCell>
        <mxCell id="HJMxeG1oSkIeelWJfz3V-5" value="Consulter le guide" style="ellipse;whiteSpace=wrap;html=1;" parent="1" vertex="1">
          <mxGeometry x="199" y="130" width="120" height="40" as="geometry" />
        </mxCell>
        <mxCell id="HJMxeG1oSkIeelWJfz3V-6" value="Consulter les actualités du site" style="ellipse;whiteSpace=wrap;html=1;" parent="1" vertex="1">
          <mxGeometry x="269" y="170" width="120" height="50" as="geometry" />
        </mxCell>
        <mxCell id="HJMxeG1oSkIeelWJfz3V-7" value="Consulter les mentions légales" style="ellipse;whiteSpace=wrap;html=1;" parent="1" vertex="1">
          <mxGeometry x="249" y="230" width="120" height="40" as="geometry" />
        </mxCell>
        <mxCell id="HJMxeG1oSkIeelWJfz3V-8" value="Lancer un combat" style="ellipse;whiteSpace=wrap;html=1;" parent="1" vertex="1">
          <mxGeometry x="278.5" y="720" width="120" height="50" as="geometry" />
        </mxCell>
        <mxCell id="HJMxeG1oSkIeelWJfz3V-9" value="Equiper son personnage" style="ellipse;whiteSpace=wrap;html=1;" parent="1" vertex="1">
          <mxGeometry x="289.5" y="560" width="120" height="40" as="geometry" />
        </mxCell>
        <mxCell id="HJMxeG1oSkIeelWJfz3V-10" value="Modifier son deck" style="ellipse;whiteSpace=wrap;html=1;" parent="1" vertex="1">
          <mxGeometry x="179" y="585" width="90" height="40" as="geometry" />
        </mxCell>
        <mxCell id="HJMxeG1oSkIeelWJfz3V-11" value="Voir son personnage" style="ellipse;whiteSpace=wrap;html=1;" parent="1" vertex="1">
          <mxGeometry x="313" y="610" width="101" height="40" as="geometry" />
        </mxCell>
        <mxCell id="HJMxeG1oSkIeelWJfz3V-12" value="Créer un compte" style="ellipse;whiteSpace=wrap;html=1;" parent="1" vertex="1">
          <mxGeometry x="179" y="20" width="120" height="40" as="geometry" />
        </mxCell>
        <mxCell id="HJMxeG1oSkIeelWJfz3V-13" value="Créer un personnage" style="ellipse;whiteSpace=wrap;html=1;" parent="1" vertex="1">
          <mxGeometry x="189" y="350" width="120" height="50" as="geometry" />
        </mxCell>
        <mxCell id="HJMxeG1oSkIeelWJfz3V-14" value="Se connecter" style="ellipse;whiteSpace=wrap;html=1;" parent="1" vertex="1">
          <mxGeometry x="179" y="70" width="120" height="40" as="geometry" />
        </mxCell>
        <mxCell id="HJMxeG1oSkIeelWJfz3V-15" value="Acheter des cartes" style="ellipse;whiteSpace=wrap;html=1;" parent="1" vertex="1">
          <mxGeometry x="174" y="810" width="120" height="50" as="geometry" />
        </mxCell>
        <mxCell id="HJMxeG1oSkIeelWJfz3V-16" value="Acheter de l&#39;équipement" style="ellipse;whiteSpace=wrap;html=1;" parent="1" vertex="1">
          <mxGeometry x="299" y="810" width="120" height="50" as="geometry" />
        </mxCell>
        <mxCell id="HJMxeG1oSkIeelWJfz3V-17" value="Se déconnecter" style="ellipse;whiteSpace=wrap;html=1;" parent="1" vertex="1">
          <mxGeometry x="189" y="410" width="120" height="50" as="geometry" />
        </mxCell>
        <mxCell id="HJMxeG1oSkIeelWJfz3V-18" value="Voir sa collection de cartes" style="ellipse;whiteSpace=wrap;html=1;" parent="1" vertex="1">
          <mxGeometry x="189" y="520" width="120" height="50" as="geometry" />
        </mxCell>
        <mxCell id="HJMxeG1oSkIeelWJfz3V-19" value="Revisionner un combat" style="ellipse;whiteSpace=wrap;html=1;" parent="1" vertex="1">
          <mxGeometry x="460" y="570" width="140" height="60" as="geometry" />
        </mxCell>
        <mxCell id="HJMxeG1oSkIeelWJfz3V-20" value="Utilisateur virtuel" style="shape=umlActor;verticalLabelPosition=bottom;verticalAlign=top;html=1;outlineConnect=0;" parent="1" vertex="1">
          <mxGeometry x="98.98" y="197.5" width="30" height="60" as="geometry" />
        </mxCell>
        <mxCell id="HJMxeG1oSkIeelWJfz3V-21" value="Utilisateur connecté&amp;nbsp;&lt;div&gt;(sans personnage)&lt;/div&gt;" style="shape=umlActor;verticalLabelPosition=bottom;verticalAlign=top;html=1;outlineConnect=0;" parent="1" vertex="1">
          <mxGeometry x="98.98" y="390" width="30" height="60" as="geometry" />
        </mxCell>
        <mxCell id="HJMxeG1oSkIeelWJfz3V-22" value="" style="edgeStyle=none;html=1;endArrow=block;endFill=0;endSize=12;verticalAlign=bottom;rounded=0;" parent="1" edge="1">
          <mxGeometry width="160" relative="1" as="geometry">
            <mxPoint x="114" y="380" as="sourcePoint" />
            <mxPoint x="113.98" y="287.5" as="targetPoint" />
          </mxGeometry>
        </mxCell>
        <mxCell id="HJMxeG1oSkIeelWJfz3V-23" value="" style="edgeStyle=none;html=1;endArrow=block;endFill=0;endSize=12;verticalAlign=bottom;rounded=0;" parent="1" edge="1">
          <mxGeometry width="160" relative="1" as="geometry">
            <mxPoint x="113.98" y="142.5" as="sourcePoint" />
            <mxPoint x="113.98" y="192.5" as="targetPoint" />
          </mxGeometry>
        </mxCell>
        <mxCell id="HJMxeG1oSkIeelWJfz3V-24" value="" style="edgeStyle=none;html=1;endArrow=block;endFill=0;endSize=12;verticalAlign=bottom;rounded=0;" parent="1" source="HJMxeG1oSkIeelWJfz3V-21" edge="1">
          <mxGeometry width="160" relative="1" as="geometry">
            <mxPoint x="98.98" y="477.5" as="sourcePoint" />
            <mxPoint x="78.98" y="237.5" as="targetPoint" />
            <Array as="points">
              <mxPoint x="40" y="420" />
              <mxPoint x="38.980000000000004" y="237.5" />
            </Array>
          </mxGeometry>
        </mxCell>
        <mxCell id="HJMxeG1oSkIeelWJfz3V-26" value="" style="endArrow=none;html=1;rounded=0;" parent="1" target="HJMxeG1oSkIeelWJfz3V-12" edge="1">
          <mxGeometry width="50" height="50" relative="1" as="geometry">
            <mxPoint x="139" y="80" as="sourcePoint" />
            <mxPoint x="409" y="325" as="targetPoint" />
          </mxGeometry>
        </mxCell>
        <mxCell id="HJMxeG1oSkIeelWJfz3V-27" value="" style="endArrow=none;html=1;rounded=0;" parent="1" target="HJMxeG1oSkIeelWJfz3V-14" edge="1">
          <mxGeometry width="50" height="50" relative="1" as="geometry">
            <mxPoint x="140" y="90" as="sourcePoint" />
            <mxPoint x="211" y="-45" as="targetPoint" />
          </mxGeometry>
        </mxCell>
        <mxCell id="HJMxeG1oSkIeelWJfz3V-28" value="" style="endArrow=none;html=1;rounded=0;" parent="1" target="HJMxeG1oSkIeelWJfz3V-5" edge="1">
          <mxGeometry width="50" height="50" relative="1" as="geometry">
            <mxPoint x="149" y="210" as="sourcePoint" />
            <mxPoint x="189" y="99" as="targetPoint" />
          </mxGeometry>
        </mxCell>
        <mxCell id="HJMxeG1oSkIeelWJfz3V-29" value="" style="endArrow=none;html=1;rounded=0;" parent="1" target="HJMxeG1oSkIeelWJfz3V-6" edge="1">
          <mxGeometry width="50" height="50" relative="1" as="geometry">
            <mxPoint x="139" y="230" as="sourcePoint" />
            <mxPoint x="245" y="186" as="targetPoint" />
          </mxGeometry>
        </mxCell>
        <mxCell id="HJMxeG1oSkIeelWJfz3V-30" value="" style="endArrow=none;html=1;rounded=0;entryX=0;entryY=0.5;entryDx=0;entryDy=0;" parent="1" target="HJMxeG1oSkIeelWJfz3V-7" edge="1">
          <mxGeometry width="50" height="50" relative="1" as="geometry">
            <mxPoint x="139" y="240" as="sourcePoint" />
            <mxPoint x="209" y="270" as="targetPoint" />
          </mxGeometry>
        </mxCell>
        <mxCell id="HJMxeG1oSkIeelWJfz3V-31" value="" style="endArrow=none;html=1;rounded=0;" parent="1" source="HJMxeG1oSkIeelWJfz3V-21" target="HJMxeG1oSkIeelWJfz3V-17" edge="1">
          <mxGeometry width="50" height="50" relative="1" as="geometry">
            <mxPoint x="139" y="455" as="sourcePoint" />
            <mxPoint x="409" y="440" as="targetPoint" />
          </mxGeometry>
        </mxCell>
        <mxCell id="HJMxeG1oSkIeelWJfz3V-32" value="" style="edgeStyle=none;html=1;endArrow=block;endFill=0;endSize=12;verticalAlign=bottom;rounded=0;" parent="1" edge="1">
          <mxGeometry width="160" relative="1" as="geometry">
            <mxPoint x="70" y="680" as="sourcePoint" />
            <mxPoint x="78.98" y="207.5" as="targetPoint" />
            <Array as="points">
              <mxPoint x="9" y="680" />
              <mxPoint x="8.98" y="207.5" />
            </Array>
          </mxGeometry>
        </mxCell>
        <mxCell id="HJMxeG1oSkIeelWJfz3V-33" value="Visionner des combats d&#39;autres utilisateurs" style="ellipse;whiteSpace=wrap;html=1;" parent="1" vertex="1">
          <mxGeometry x="219" y="280" width="120" height="60" as="geometry" />
        </mxCell>
        <mxCell id="HJMxeG1oSkIeelWJfz3V-34" value="" style="endArrow=none;html=1;rounded=0;" parent="1" target="HJMxeG1oSkIeelWJfz3V-33" edge="1">
          <mxGeometry width="50" height="50" relative="1" as="geometry">
            <mxPoint x="139" y="250" as="sourcePoint" />
            <mxPoint x="209" y="320" as="targetPoint" />
          </mxGeometry>
        </mxCell>
        <mxCell id="HJMxeG1oSkIeelWJfz3V-35" value="" style="endArrow=none;html=1;rounded=0;entryX=0.217;entryY=0.92;entryDx=0;entryDy=0;entryPerimeter=0;" parent="1" target="HJMxeG1oSkIeelWJfz3V-18" edge="1">
          <mxGeometry width="50" height="50" relative="1" as="geometry">
            <mxPoint x="130" y="650" as="sourcePoint" />
            <mxPoint x="108.98" y="597.5" as="targetPoint" />
            <Array as="points">
              <mxPoint x="180" y="590" />
            </Array>
          </mxGeometry>
        </mxCell>
        <mxCell id="HJMxeG1oSkIeelWJfz3V-36" value="" style="endArrow=none;html=1;rounded=0;" parent="1" source="HJMxeG1oSkIeelWJfz3V-21" target="HJMxeG1oSkIeelWJfz3V-13" edge="1">
          <mxGeometry width="50" height="50" relative="1" as="geometry">
            <mxPoint x="149" y="430" as="sourcePoint" />
            <mxPoint x="409" y="510" as="targetPoint" />
            <Array as="points">
              <mxPoint x="130" y="420" />
            </Array>
          </mxGeometry>
        </mxCell>
        <mxCell id="HJMxeG1oSkIeelWJfz3V-37" value="" style="endArrow=none;html=1;rounded=0;entryX=0.327;entryY=0.979;entryDx=0;entryDy=0;entryPerimeter=0;" parent="1" target="HJMxeG1oSkIeelWJfz3V-9" edge="1">
          <mxGeometry width="50" height="50" relative="1" as="geometry">
            <mxPoint x="130" y="670" as="sourcePoint" />
            <mxPoint x="409" y="570" as="targetPoint" />
          </mxGeometry>
        </mxCell>
        <mxCell id="HJMxeG1oSkIeelWJfz3V-38" value="" style="endArrow=none;html=1;rounded=0;entryX=0;entryY=0.5;entryDx=0;entryDy=0;" parent="1" source="HJMxeG1oSkIeelWJfz3V-3" target="HJMxeG1oSkIeelWJfz3V-8" edge="1">
          <mxGeometry width="50" height="50" relative="1" as="geometry">
            <mxPoint x="149" y="770" as="sourcePoint" />
            <mxPoint x="409" y="570" as="targetPoint" />
          </mxGeometry>
        </mxCell>
        <mxCell id="HJMxeG1oSkIeelWJfz3V-39" value="" style="endArrow=none;html=1;rounded=0;entryX=0;entryY=1;entryDx=0;entryDy=0;" parent="1" target="HJMxeG1oSkIeelWJfz3V-11" edge="1">
          <mxGeometry width="50" height="50" relative="1" as="geometry">
            <mxPoint x="140" y="680" as="sourcePoint" />
            <mxPoint x="409" y="570" as="targetPoint" />
          </mxGeometry>
        </mxCell>
        <mxCell id="HJMxeG1oSkIeelWJfz3V-40" value="&amp;lt;&amp;lt;extend&amp;gt;&amp;gt;" style="edgeStyle=none;html=1;startArrow=open;endArrow=none;startSize=12;verticalAlign=bottom;dashed=1;labelBackgroundColor=none;rounded=0;entryX=0.5;entryY=1;entryDx=0;entryDy=0;" parent="1" source="HJMxeG1oSkIeelWJfz3V-11" target="HJMxeG1oSkIeelWJfz3V-41" edge="1">
          <mxGeometry x="0.5934" y="-30" width="160" relative="1" as="geometry">
            <mxPoint x="299" y="600" as="sourcePoint" />
            <mxPoint x="559" y="620" as="targetPoint" />
            <Array as="points">
              <mxPoint x="450" y="590" />
            </Array>
            <mxPoint as="offset" />
          </mxGeometry>
        </mxCell>
        <mxCell id="HJMxeG1oSkIeelWJfz3V-41" value="Consulter les statistiques de son personnage" style="ellipse;whiteSpace=wrap;html=1;" parent="1" vertex="1">
          <mxGeometry x="389" y="440" width="120" height="80" as="geometry" />
        </mxCell>
        <mxCell id="HJMxeG1oSkIeelWJfz3V-47" value="" style="endArrow=none;html=1;rounded=0;entryX=0;entryY=0;entryDx=0;entryDy=0;" parent="1" target="HJMxeG1oSkIeelWJfz3V-15" edge="1">
          <mxGeometry width="50" height="50" relative="1" as="geometry">
            <mxPoint x="120" y="760" as="sourcePoint" />
            <mxPoint x="409" y="670" as="targetPoint" />
          </mxGeometry>
        </mxCell>
        <mxCell id="HJMxeG1oSkIeelWJfz3V-48" value="" style="endArrow=none;html=1;rounded=0;" parent="1" target="HJMxeG1oSkIeelWJfz3V-16" edge="1">
          <mxGeometry width="50" height="50" relative="1" as="geometry">
            <mxPoint x="130" y="710" as="sourcePoint" />
            <mxPoint x="409" y="670" as="targetPoint" />
          </mxGeometry>
        </mxCell>
        <mxCell id="HJMxeG1oSkIeelWJfz3V-49" value="&amp;lt;&amp;lt;extend&amp;gt;&amp;gt;" style="edgeStyle=none;html=1;startArrow=open;endArrow=none;startSize=12;verticalAlign=bottom;dashed=1;labelBackgroundColor=none;rounded=0;exitX=0.65;exitY=-0.025;exitDx=0;exitDy=0;exitPerimeter=0;" parent="1" source="HJMxeG1oSkIeelWJfz3V-9" target="HJMxeG1oSkIeelWJfz3V-41" edge="1">
          <mxGeometry x="-0.6903" y="18" width="160" relative="1" as="geometry">
            <mxPoint x="299" y="600" as="sourcePoint" />
            <mxPoint x="459" y="600" as="targetPoint" />
            <mxPoint as="offset" />
          </mxGeometry>
        </mxCell>
        <mxCell id="HJMxeG1oSkIeelWJfz3V-50" value="" style="endArrow=none;html=1;rounded=0;entryX=0.5;entryY=1;entryDx=0;entryDy=0;" parent="1" target="HJMxeG1oSkIeelWJfz3V-10" edge="1">
          <mxGeometry width="50" height="50" relative="1" as="geometry">
            <mxPoint x="130" y="660" as="sourcePoint" />
            <mxPoint x="409" y="570" as="targetPoint" />
          </mxGeometry>
        </mxCell>
        <mxCell id="HJMxeG1oSkIeelWJfz3V-55" value="" style="endArrow=none;html=1;rounded=0;entryX=0.5;entryY=1;entryDx=0;entryDy=0;" parent="1" target="HJMxeG1oSkIeelWJfz3V-17" edge="1">
          <mxGeometry width="50" height="50" relative="1" as="geometry">
            <mxPoint x="110" y="650" as="sourcePoint" />
            <mxPoint x="410" y="470" as="targetPoint" />
            <Array as="points">
              <mxPoint x="120" y="550" />
            </Array>
          </mxGeometry>
        </mxCell>
        <mxCell id="HJMxeG1oSkIeelWJfz3V-60" value="Voir le classement" style="ellipse;whiteSpace=wrap;html=1;" parent="1" vertex="1">
          <mxGeometry x="253.5" y="480" width="111" height="40" as="geometry" />
        </mxCell>
        <mxCell id="HJMxeG1oSkIeelWJfz3V-61" value="" style="endArrow=none;html=1;rounded=0;entryX=0;entryY=0.5;entryDx=0;entryDy=0;" parent="1" target="HJMxeG1oSkIeelWJfz3V-60" edge="1">
          <mxGeometry width="50" height="50" relative="1" as="geometry">
            <mxPoint x="120" y="650" as="sourcePoint" />
            <mxPoint x="249" y="500" as="targetPoint" />
            <Array as="points">
              <mxPoint x="160" y="540" />
            </Array>
          </mxGeometry>
        </mxCell>
        <mxCell id="HJMxeG1oSkIeelWJfz3V-62" value="Consulter son profil" style="ellipse;whiteSpace=wrap;html=1;" parent="1" vertex="1">
          <mxGeometry x="288" y="660" width="101" height="40" as="geometry" />
        </mxCell>
        <mxCell id="HJMxeG1oSkIeelWJfz3V-63" value="" style="endArrow=none;html=1;rounded=0;entryX=0.059;entryY=0.75;entryDx=0;entryDy=0;entryPerimeter=0;" parent="1" source="HJMxeG1oSkIeelWJfz3V-3" target="HJMxeG1oSkIeelWJfz3V-62" edge="1">
          <mxGeometry width="50" height="50" relative="1" as="geometry">
            <mxPoint x="140" y="770" as="sourcePoint" />
            <mxPoint x="209" y="720" as="targetPoint" />
          </mxGeometry>
        </mxCell>
        <mxCell id="HJMxeG1oSkIeelWJfz3V-64" value="Désactiver son compte" style="ellipse;whiteSpace=wrap;html=1;" parent="1" vertex="1">
          <mxGeometry x="448" y="650" width="90.5" height="60" as="geometry" />
        </mxCell>
        <mxCell id="HJMxeG1oSkIeelWJfz3V-65" value="&amp;lt;&amp;lt;extend&amp;gt;&amp;gt;" style="html=1;verticalAlign=bottom;labelBackgroundColor=none;endArrow=open;endFill=0;dashed=1;rounded=0;exitX=0;exitY=0.5;exitDx=0;exitDy=0;entryX=1;entryY=0.5;entryDx=0;entryDy=0;" parent="1" source="HJMxeG1oSkIeelWJfz3V-64" target="HJMxeG1oSkIeelWJfz3V-62" edge="1">
          <mxGeometry x="-0.0169" y="20" width="160" relative="1" as="geometry">
            <mxPoint x="370" y="690" as="sourcePoint" />
            <mxPoint x="340" y="690" as="targetPoint" />
            <Array as="points" />
            <mxPoint as="offset" />
          </mxGeometry>
        </mxCell>
        <mxCell id="SLvme4ZmVPLQv_U2y6gt-3" value="&amp;lt;&amp;lt;extend&amp;gt;&amp;gt;" style="html=1;verticalAlign=bottom;labelBackgroundColor=none;endArrow=open;endFill=0;dashed=1;rounded=0;exitX=0.046;exitY=0.789;exitDx=0;exitDy=0;entryX=1;entryY=0.5;entryDx=0;entryDy=0;exitPerimeter=0;" edge="1" parent="1" source="HJMxeG1oSkIeelWJfz3V-19" target="HJMxeG1oSkIeelWJfz3V-11">
          <mxGeometry x="-0.5708" y="21" width="160" relative="1" as="geometry">
            <mxPoint x="458" y="690" as="sourcePoint" />
            <mxPoint x="399" y="690" as="targetPoint" />
            <Array as="points" />
            <mxPoint as="offset" />
          </mxGeometry>
        </mxCell>
      </root>
    </mxGraphModel>
  </diagram>
</mxfile>
